<svg width="19" height="28" viewBox="0 0 19 28" fill="none" xmlns="http://www.w3.org/2000/svg">
<path d="M8.58398 8.75C8.58398 7.51232 9.07565 6.32534 9.95082 5.45017C10.826 4.575 12.013 4.08333 13.2507 4.08333H14.4173V0.583333H1.58398V4.08333C2.20282 4.08333 2.79632 4.32917 3.2339 4.76675C3.67149 5.20434 3.91732 5.79783 3.91732 6.41667V13.4167C3.91732 14.0355 3.67149 14.629 3.2339 15.0666C2.79632 15.5042 2.20282 15.75 1.58398 15.75V27.4167H14.4173V19.25L14.2482 19.1485C10.334 16.3333 8.58398 13.4167 8.58398 8.75ZM8.58398 8.75H3.91732M12.084 4.23033V5.83333C12.084 6.60688 12.3913 7.34875 12.9383 7.89573C13.4852 8.44271 14.2271 8.75 15.0007 8.75M17.9173 0V4.66667" stroke="black" stroke-width="1.5"/>
</svg>
