<svg width="20" height="20" viewBox="0 0 20 20" fill="none" xmlns="http://www.w3.org/2000/svg">
<g clip-path="url(#clip0_349_226)">
<path d="M18.2268 0.753906H1.7752C1.21169 0.753906 0.754883 1.21072 0.754883 1.77422V18.2258C0.754883 18.7893 1.21169 19.2461 1.7752 19.2461H18.2268C18.7903 19.2461 19.2471 18.7893 19.2471 18.2258V1.77422C19.2471 1.21072 18.7903 0.753906 18.2268 0.753906Z" fill="#3D5A98"/>
<path d="M13.5123 19.2456V12.0847H15.9154L16.2748 9.29403H13.5123V7.51278C13.5123 6.70497 13.7373 6.1534 14.8951 6.1534H16.3732V3.6534C15.6575 3.57881 14.9382 3.54334 14.2186 3.54715C12.0904 3.54715 10.6248 4.84403 10.6248 7.23622V9.29403H8.22168V12.0847H10.6248V19.2456H13.5123Z" fill="white"/>
</g>
<defs>
<clipPath id="clip0_349_226">
<rect width="20" height="20" fill="white"/>
</clipPath>
</defs>
</svg>
