<svg width="28" height="24" viewBox="0 0 28 24" fill="none" xmlns="http://www.w3.org/2000/svg">
<path d="M1 20H27C27.2652 20 27.5196 19.8946 27.7071 19.7071C27.8946 19.5196 28 19.2652 28 19C28 18.7348 27.8946 18.4804 27.7071 18.2929C27.5196 18.1054 27.2652 18 27 18H26V16C25.9964 12.9916 24.8643 10.0941 22.8276 7.88008C20.7908 5.66605 17.9976 4.29664 15 4.0425V2H17C17.2652 2 17.5196 1.89464 17.7071 1.70711C17.8946 1.51957 18 1.26522 18 1C18 0.734784 17.8946 0.48043 17.7071 0.292893C17.5196 0.105357 17.2652 0 17 0H11C10.7348 0 10.4804 0.105357 10.2929 0.292893C10.1054 0.48043 10 0.734784 10 1C10 1.26522 10.1054 1.51957 10.2929 1.70711C10.4804 1.89464 10.7348 2 11 2H13V4.0425C10.0024 4.29664 7.20919 5.66605 5.17245 7.88008C3.13571 10.0941 2.00364 12.9916 2 16V18H1C0.734784 18 0.48043 18.1054 0.292893 18.2929C0.105357 18.4804 0 18.7348 0 19C0 19.2652 0.105357 19.5196 0.292893 19.7071C0.48043 19.8946 0.734784 20 1 20ZM4 16C4 13.3478 5.05357 10.8043 6.92893 8.92893C8.8043 7.05357 11.3478 6 14 6C16.6522 6 19.1957 7.05357 21.0711 8.92893C22.9464 10.8043 24 13.3478 24 16V18H4V16ZM28 23C28 23.2652 27.8946 23.5196 27.7071 23.7071C27.5196 23.8946 27.2652 24 27 24H1C0.734784 24 0.48043 23.8946 0.292893 23.7071C0.105357 23.5196 0 23.2652 0 23C0 22.7348 0.105357 22.4804 0.292893 22.2929C0.48043 22.1054 0.734784 22 1 22H27C27.2652 22 27.5196 22.1054 27.7071 22.2929C27.8946 22.4804 28 22.7348 28 23Z" fill="#343330"/>
</svg>
