<svg width="22" height="21" viewBox="0 0 22 21" fill="none" xmlns="http://www.w3.org/2000/svg">
<path d="M20.75 18.75H18.5V2.25C18.5 1.85218 18.342 1.47064 18.0607 1.18934C17.7794 0.908035 17.3978 0.75 17 0.75H5C4.60218 0.75 4.22064 0.908035 3.93934 1.18934C3.65804 1.47064 3.5 1.85218 3.5 2.25V18.75H1.25C1.05109 18.75 0.860322 18.829 0.71967 18.9697C0.579018 19.1103 0.5 19.3011 0.5 19.5C0.5 19.6989 0.579018 19.8897 0.71967 20.0303C0.860322 20.171 1.05109 20.25 1.25 20.25H20.75C20.9489 20.25 21.1397 20.171 21.2803 20.0303C21.421 19.8897 21.5 19.6989 21.5 19.5C21.5 19.3011 21.421 19.1103 21.2803 18.9697C21.1397 18.829 20.9489 18.75 20.75 18.75ZM17 2.25V18.75H15.5V2.25H17ZM5 2.25H14V18.75H5V2.25ZM12.5 10.875C12.5 11.0975 12.434 11.315 12.3104 11.5C12.1868 11.685 12.0111 11.8292 11.8055 11.9144C11.6 11.9995 11.3738 12.0218 11.1555 11.9784C10.9373 11.935 10.7368 11.8278 10.5795 11.6705C10.4222 11.5132 10.315 11.3127 10.2716 11.0945C10.2282 10.8762 10.2505 10.65 10.3356 10.4445C10.4208 10.2389 10.565 10.0632 10.75 9.9396C10.935 9.81598 11.1525 9.75 11.375 9.75C11.6734 9.75 11.9595 9.86853 12.1705 10.0795C12.3815 10.2905 12.5 10.5766 12.5 10.875Z" fill="#343330"/>
</svg>
