<svg width="106" height="34" viewBox="0 0 106 34" fill="none" xmlns="http://www.w3.org/2000/svg">
<path d="M31.6146 11.0947C33.6924 11.0947 35.5434 11.5868 37.1676 12.5621C38.8008 13.5418 40.0712 14.8974 40.9785 16.6242C41.8949 18.3421 42.3577 20.3016 42.3577 22.4937C42.3577 24.7261 41.8904 26.7124 40.9604 28.4526C40.0258 30.1974 38.7373 31.5574 37.095 32.5326C35.4618 33.5079 33.6017 34 31.5238 34C29.9722 34 28.5477 33.66 27.2411 32.98C25.9436 32.291 24.8502 31.3292 23.9564 30.0989V33.2663H20.7988V0H23.9564V15.0316C24.8502 13.7789 25.9572 12.8126 27.2774 12.1326C28.5931 11.4437 30.0403 11.0947 31.6146 11.0947ZM31.6146 31.1547C33.0754 31.1547 34.3775 30.7924 35.5162 30.0632C36.664 29.325 37.5668 28.3005 38.2201 26.9853C38.8734 25.6745 39.2001 24.1758 39.2001 22.4937C39.2001 20.8474 38.8734 19.38 38.2201 18.0916C37.5668 16.7942 36.664 15.7787 35.5162 15.0495C34.3775 14.3113 33.0754 13.94 31.6146 13.94C30.1265 13.94 28.8017 14.3113 27.6403 15.0495C26.4789 15.7787 25.5715 16.7987 24.9182 18.1095C24.274 19.4247 23.9564 20.9011 23.9564 22.5474C23.9564 24.1937 24.274 25.6745 24.9182 26.9853C25.5715 28.3005 26.4789 29.325 27.6403 30.0632C28.8017 30.7924 30.1265 31.1547 31.6146 31.1547Z" fill="#003366"/>
<path d="M57.4934 11.0947C58.242 11.0947 58.9542 11.2021 59.6348 11.4168V14.2621C58.9815 13.9534 58.2646 13.7968 57.4934 13.7968C56.1596 13.7968 54.921 14.1681 53.7732 14.9063C52.6345 15.6355 51.7135 16.6958 51.0148 18.0916C50.3116 19.4784 49.9623 21.1158 49.9623 23.0126V33.2663H46.8047V11.8284H49.9623V16.141C50.7971 14.5439 51.8541 13.3047 53.1381 12.4189C54.431 11.5376 55.8828 11.0947 57.4934 11.0947Z" fill="#003366"/>
<path d="M72.0429 34C69.9605 34 68.0958 33.5079 66.4535 32.5326C64.8203 31.5574 63.5364 30.1884 62.6063 28.4347C61.6717 26.681 61.209 24.7037 61.209 22.4937C61.209 20.3016 61.6627 18.3421 62.57 16.6242C63.4865 14.8974 64.7568 13.5418 66.3809 12.5621C68.0142 11.5868 69.8652 11.0947 71.934 11.0947C74.0118 11.0947 75.8719 11.5868 77.5052 12.5621C79.1475 13.5418 80.4359 14.9018 81.3705 16.6421C82.3006 18.3868 82.7679 20.3553 82.7679 22.5474C82.7679 24.7439 82.3051 26.7124 81.3887 28.4526C80.4813 30.1974 79.211 31.5574 77.5778 32.5326C75.9536 33.5079 74.1116 34 72.0429 34ZM71.934 31.1547C73.4221 31.1547 74.7468 30.7924 75.9082 30.0631C77.0696 29.325 77.977 28.3005 78.6303 26.9853C79.2836 25.6745 79.6102 24.1937 79.6102 22.5474C79.6102 20.901 79.2836 19.4247 78.6303 18.1095C77.977 16.7987 77.0696 15.7787 75.9082 15.0495C74.7468 14.3113 73.4221 13.94 71.934 13.94C70.4822 13.94 69.1801 14.3113 68.0323 15.0495C66.8936 15.7787 65.9998 16.7942 65.3465 18.0916C64.6932 19.38 64.3666 20.8474 64.3666 22.4937C64.3666 24.1758 64.6932 25.6745 65.3465 26.9853C65.9998 28.3005 66.8936 29.325 68.0323 30.0631C69.1801 30.7924 70.4822 31.1547 71.934 31.1547Z" fill="#003366"/>
<path d="M97.5798 11.0947C99.1042 11.0947 100.506 11.3989 101.79 12.0074C103.069 12.6158 104.095 13.5195 104.857 14.7095C105.619 15.9039 106 17.3131 106 18.9326V33.2663H102.824V20.3105C102.824 16.065 100.905 13.94 97.0717 13.94C94.8441 13.94 93.1701 14.7229 92.0449 16.2842C90.9289 17.8366 90.3754 19.9258 90.3754 22.5474V33.2663H87.2178V11.8284H90.3754V15.4074C91.124 14.025 92.1084 12.9647 93.3334 12.2221C94.5538 11.4705 95.9693 11.0947 97.5798 11.0947Z" fill="#003366"/>
<path d="M18.546 31.9525H8.16576V33.9746H6.58695V31.9525H2.63086V30.2346H6.58695V27.5146H8.16576V30.2346H18.546V31.9525Z" fill="#003366"/>
<path d="M6.1882 20.0319C6.1882 19.2087 6.36059 18.4527 6.69632 17.7593C7.03658 17.0569 7.54016 16.5022 8.20254 16.0951C8.86945 15.679 9.64978 15.4688 10.5435 15.4688H18.5464V17.1866H11.3239C8.95564 17.1866 7.767 18.2335 7.767 20.3182C7.767 21.5261 8.20254 22.4298 9.0736 23.0382C9.93559 23.6466 11.1016 23.9509 12.576 23.9509H18.5464V25.6509H0V23.9509H8.58363C7.82144 23.5482 7.2362 23.0159 6.82335 22.3582C6.40143 21.6916 6.1882 20.9177 6.1882 20.0319Z" fill="#003366"/>
<path d="M6.18848 7.11651C6.18848 6.05624 6.45615 5.10335 6.98695 4.25335C7.50869 3.3944 8.22096 2.72335 9.12832 2.23124C10.0357 1.74361 11.0519 1.49756 12.1771 1.49756C12.5037 1.49756 12.7532 1.50651 12.9211 1.51545V11.2144C14.1551 11.1562 15.2076 10.767 16.0787 10.0512C16.9407 9.3265 17.3672 8.33335 17.3672 7.08072C17.3672 6.07861 17.1811 5.25098 16.8046 4.59335C16.419 3.92677 15.8882 3.38993 15.2076 2.98282L16.115 1.62282C16.9997 2.17309 17.6938 2.9023 18.2019 3.80598C18.71 4.71414 18.9641 5.79229 18.9641 7.04493C18.9641 8.18124 18.6919 9.19229 18.1475 10.087C17.594 10.9818 16.8318 11.6797 15.8609 12.1807C14.8946 12.6818 13.8012 12.9323 12.5763 12.9323C11.3423 12.9323 10.2444 12.6907 9.2735 12.1986C8.30716 11.6976 7.54952 11.0086 7.0051 10.1228C6.46068 9.2415 6.18848 8.2394 6.18848 7.11651ZM11.4875 3.21545C10.2534 3.38545 9.32794 3.79703 8.71094 4.45019C8.08486 5.10782 7.76728 5.99808 7.76728 7.11651C7.76728 8.20361 8.12569 9.09835 8.83797 9.80072C9.54117 10.4941 10.4258 10.937 11.4875 11.1249V3.21545Z" fill="#003366"/>
</svg>
