<svg width="66" height="32" viewBox="0 0 66 32" fill="none" xmlns="http://www.w3.org/2000/svg">
<rect width="66" height="32" rx="4" fill="#4825C2"/>
<path fill-rule="evenodd" clip-rule="evenodd" d="M56 16L55.9996 16.8L55.9993 17.1313L55.9982 17.3855L55.9971 17.5998L55.9954 17.7885L55.9936 17.959L55.9911 18.1157L55.9882 18.2615L55.9854 18.3984L55.9818 18.5277L55.9779 18.6506L55.9736 18.768L55.969 18.8804L55.9643 18.9884L55.959 19.0926L55.9533 19.1932L55.9472 19.2906L55.9408 19.385L55.934 19.4766L55.9269 19.5658L55.9194 19.6526L55.9116 19.7372L55.9034 19.8198L55.8944 19.9004L55.8855 19.9792L55.8763 20.0562L55.8666 20.1317L55.8563 20.2056L55.846 20.278L55.8353 20.349L55.8238 20.4186L55.8124 20.4869L55.8003 20.554L55.7878 20.6199L55.7753 20.6846L55.7621 20.7482L55.7486 20.8108L55.7347 20.8722L55.7204 20.9328L55.7058 20.9923L55.6908 21.0508L55.6755 21.1085L55.6598 21.1652L55.6438 21.2211L55.627 21.2762L55.6102 21.3304L55.5928 21.3838L55.5753 21.4364L55.5571 21.4882L55.5386 21.5392L55.5197 21.5896L55.5004 21.6392L55.4808 21.6881L55.4608 21.7363L55.4402 21.7838L55.4195 21.8306L55.3981 21.8768L55.3763 21.9223L55.3542 21.9672L55.3317 22.0114L55.3089 22.055L55.2858 22.098L55.2619 22.1405L55.238 22.1823L55.2134 22.2235L55.1884 22.2642L55.1631 22.3042L55.1371 22.3437L55.111 22.3827L55.0843 22.421L55.0572 22.4589L55.0297 22.4962L55.0015 22.533L54.973 22.5692L54.9445 22.6049L54.9149 22.6401L54.8853 22.6748L54.855 22.709L54.8243 22.7426L54.7933 22.7758L54.7616 22.8084L54.7295 22.8406L54.697 22.8722L54.6639 22.9034L54.6303 22.9341L54.5965 22.9643L54.5619 22.9941L54.5269 23.0233L54.4916 23.0521L54.4556 23.0805L54.4189 23.1083L54.3818 23.1357L54.3444 23.1626L54.3062 23.1892L54.2677 23.2152L54.2285 23.2407L54.1885 23.2658L54.1482 23.2905L54.1072 23.3148L54.0659 23.3386L54.0238 23.3619L53.981 23.3848L53.9378 23.4072L53.894 23.4292L53.8494 23.4508L53.8041 23.472L53.7581 23.4927L53.7118 23.513L53.6643 23.5329L53.6166 23.5523L53.5677 23.5713L53.5185 23.5899L53.4682 23.608L53.4172 23.6258L53.3655 23.6431L53.3131 23.66L53.2596 23.6765L53.2054 23.6925L53.1505 23.7082L53.0942 23.7234L53.0375 23.7382L52.9793 23.7526L52.9205 23.7666L52.8602 23.7801L52.7993 23.7933L52.7369 23.806L52.6734 23.8184L52.6088 23.8303L52.5429 23.8418L52.4755 23.8529L52.407 23.8636L52.3368 23.8739L52.2647 23.8838L52.1913 23.8932L52.1164 23.9023L52.0394 23.911L51.9602 23.9192L51.8789 23.9271L51.7955 23.9345L51.7095 23.9416L51.6211 23.9482L51.5294 23.9545L51.4346 23.9603L51.3362 23.9658L51.2342 23.9708L51.1272 23.9754L51.0156 23.9797L50.8983 23.9835L50.7738 23.987L50.6415 23.99L50.4993 23.9926L50.3449 23.9948L50.1744 23.9967L49.9808 23.9981L49.7526 23.9991L49.4584 23.9998L45.32 24L44.4137 23.9998L44.1024 23.9993L43.8666 23.9983L43.6688 23.9969L43.495 23.9952L43.3383 23.993L43.1943 23.9904L43.0606 23.9874L42.9351 23.9841L42.8166 23.9803L42.704 23.9761L42.5966 23.9716L42.4936 23.9666L42.3947 23.9612L42.2995 23.9554L42.2074 23.9492L42.1183 23.9427L42.032 23.9357L41.9481 23.9283L41.8666 23.9205L41.7872 23.9123L41.7098 23.9037L41.6344 23.8947L41.5607 23.8853L41.4886 23.8755L41.4182 23.8652L41.3492 23.8546L41.2817 23.8436L41.2155 23.8321L41.1507 23.8203L41.087 23.808L41.0246 23.7953L40.9633 23.7822L40.9031 23.7687L40.8439 23.7548L40.7858 23.7405L40.7286 23.7258L40.6725 23.7106L40.6172 23.695L40.5628 23.679L40.5093 23.6626L40.4566 23.6458L40.4048 23.6286L40.3537 23.6109L40.3034 23.5928L40.2539 23.5743L40.2051 23.5554L40.1571 23.536L40.1097 23.5162L40.0631 23.496L40.0171 23.4753L39.9718 23.4542L39.9271 23.4327L39.8831 23.4108L39.8397 23.3884L39.7969 23.3656L39.7547 23.3423L39.7131 23.3186L39.6721 23.2944L39.6317 23.2698L39.5919 23.2448L39.5526 23.2193L39.5138 23.1933L39.4757 23.1669L39.438 23.14L39.4008 23.1127L39.3643 23.0849L39.3282 23.0567L39.2926 23.028L39.2575 22.9988L39.2229 22.9691L39.1889 22.939L39.1553 22.9083L39.1222 22.8772L39.0895 22.8456L39.0574 22.8136L39.0257 22.781L38.9945 22.7479L38.9638 22.7143L38.9335 22.6802L38.9037 22.6457L38.8743 22.6106L38.8453 22.5749L38.8168 22.5388L38.7888 22.5021L38.7612 22.4649L38.734 22.4271L38.7073 22.3888L38.681 22.35L38.6551 22.3106L38.6296 22.2706L38.6046 22.23L38.58 22.1889L38.5558 22.1472L38.532 22.1048L38.5086 22.0619L38.4857 22.0184L38.4631 21.9742L38.441 21.9295L38.4193 21.8841L38.3979 21.838L38.377 21.7913L38.3565 21.7439L38.3364 21.6958L38.3166 21.647L38.2973 21.5975L38.2783 21.5473L38.2598 21.4964L38.2416 21.4446L38.2239 21.3922L38.2065 21.3389L38.1895 21.2848L38.1729 21.23L38.1567 21.1742L38.1409 21.1176L38.1254 21.0601L38.1103 21.0017L38.0957 20.9423L38.0814 20.882L38.0675 20.8206L38.0539 20.7582L38.0407 20.6948L38.028 20.6302L38.0156 20.5646L38.0036 20.4977L37.9919 20.4295L37.9806 20.3601L37.9697 20.2894L37.9592 20.2172L37.949 20.1436L37.9392 20.0684L37.9298 19.9916L37.9207 19.913L37.9121 19.8327L37.9037 19.7505L37.8958 19.6662L37.8882 19.5798L37.881 19.491L37.8742 19.3997L37.8678 19.3058L37.8617 19.2089L37.8559 19.1088L37.8506 19.0053L37.8456 18.8979L37.8409 18.7862L37.8367 18.6697L37.8328 18.5477L37.8293 18.4194L37.8261 18.2839L37.8233 18.1396L37.8209 17.9848L37.8188 17.8167L37.8171 17.6313L37.8158 17.4218L37.8148 17.1755L37.8142 16.8613L37.814 16.3192L37.8141 15.2665L37.8146 14.9146L37.8154 14.6517L37.8166 14.4324L37.8182 14.2402L37.8202 14.0671L37.8225 13.9084L37.8252 13.761L37.8282 13.6229L37.8316 13.4924L37.8354 13.3686L37.8396 13.2504L37.844 13.1372L37.8489 13.0285L37.8542 12.9238L37.8598 12.8226L37.8658 12.7248L37.8721 12.6299L37.8788 12.5378L37.8859 12.4482L37.8934 12.3611L37.9012 12.2761L37.9094 12.1932L37.9179 12.1123L37.9268 12.0332L37.9362 11.9559L37.9458 11.8802L37.9559 11.8061L37.9663 11.7335L37.9771 11.6623L37.9883 11.5924L37.9998 11.5239L38.0117 11.4566L38.024 11.3905L38.0366 11.3256L38.0497 11.2618L38.0631 11.1991L38.0769 11.1375L38.0911 11.0768L38.1056 11.0171L38.1206 10.9584L38.1359 10.9006L38.1516 10.8437L38.1677 10.7877L38.1842 10.7325L38.201 10.6782L38.2183 10.6247L38.2359 10.572L38.2539 10.52L38.2724 10.4688L38.2912 10.4184L38.3104 10.3687L38.33 10.3197L38.35 10.2714L38.3704 10.2237L38.3912 10.1768L38.4124 10.1305L38.434 10.0849L38.456 10.0399L38.4785 9.99558L38.5013 9.95186L38.5245 9.90875L38.5481 9.86624L38.5722 9.82434L38.5967 9.78302L38.6216 9.74228L38.6469 9.70212L38.6727 9.66253L38.6988 9.62349L38.7254 9.58501L38.7525 9.54708L38.78 9.5097L38.8078 9.47284L38.8362 9.43652L38.865 9.40073L38.8942 9.36546L38.9239 9.3307L38.9541 9.29646L38.9847 9.26272L39.0157 9.22949L39.0473 9.19675L39.0793 9.16451L39.1117 9.13277L39.1447 9.10151L39.1781 9.07073L39.212 9.04044L39.2464 9.01062L39.2814 8.98128L39.3168 8.95241L39.3527 8.92401L39.3891 8.89607L39.4261 8.8686L39.4636 8.84159L39.5016 8.81504L39.5402 8.78894L39.5793 8.7633L39.619 8.7381L39.6592 8.71336L39.7 8.68906L39.7414 8.66521L39.7834 8.6418L39.826 8.61883L39.8692 8.5963L39.913 8.57421L39.9575 8.55255L40.0026 8.53133L40.0484 8.51054L40.0948 8.49018L40.1419 8.47025L40.1898 8.45075L40.2383 8.43168L40.2876 8.41303L40.3376 8.39481L40.3884 8.377L40.44 8.35962L40.4924 8.34266L40.5457 8.32612L40.5998 8.31L40.6548 8.2943L40.7107 8.27901L40.7675 8.26414L40.8253 8.24968L40.8841 8.23564L40.944 8.22201L41.0049 8.20879L41.067 8.19598L41.1303 8.18358L41.1947 8.1716L41.2605 8.16002L41.3276 8.14885L41.3961 8.13809L41.466 8.12773L41.5375 8.11779L41.6107 8.10825L41.6856 8.09911L41.7624 8.09038L41.8411 8.08205L41.9219 8.07413L42.005 8.06661L42.0905 8.0595L42.1787 8.05279L42.2698 8.04648L42.364 8.04057L42.4617 8.03507L42.5633 8.02997L42.6693 8.02526L42.7801 8.02096L42.8967 8.01707L43.0198 8.01357L43.1507 8.01047L43.2912 8.00777L43.4435 8.00548L43.6112 8.00358L43.8003 8.00209L44.0217 8.00099L44.3014 8.0003L44.7572 8L49.3368 8.0001L49.6688 8.00061L49.913 8.00151L50.1156 8.00282L50.2924 8.00452L50.4518 8.00663L50.5973 8.00913L50.7328 8.01204L50.8594 8.01534L50.9789 8.01905L51.0923 8.02316L51.2007 8.02767L51.3041 8.03258L51.4036 8.03789L51.4995 8.04361L51.5922 8.04972L51.6817 8.05624L51.7684 8.06316L51.8525 8.07049L51.9345 8.07822L52.0144 8.08635L52.0918 8.09489L52.1677 8.10383L52.2416 8.11318L52.3139 8.12293L52.3845 8.13309L52.4537 8.14366L52.5215 8.15463L52.5878 8.16601L52.6531 8.17781L52.7169 8.19001L52.7796 8.20262L52.841 8.21564L52.9012 8.22907L52.9608 8.24292L53.0189 8.25718L53.0763 8.27185L53.1327 8.28694L53.1879 8.30245L53.2425 8.31837L53.2963 8.33471L53.3491 8.35147L53.4008 8.36865L53.4522 8.38625L53.5024 8.40427L53.552 8.42272L53.6012 8.44159L53.6494 8.46088L53.6968 8.48061L53.7435 8.50076L53.7895 8.52134L53.8351 8.54236L53.8797 8.56381L53.9239 8.58569L53.9674 8.60801L54.0102 8.63077L54.0527 8.65397L54.0944 8.67761L54.1354 8.70169L54.1757 8.72622L54.2156 8.7512L54.2552 8.77663L54.2941 8.80251L54.3322 8.82885L54.37 8.85564L54.4071 8.88289L54.4438 8.9106L54.4802 8.93878L54.5159 8.96743L54.5508 8.99654L54.5854 9.02613L54.6196 9.0562L54.6535 9.08674L54.6867 9.11777L54.7191 9.14928L54.7516 9.18129L54.7833 9.21378L54.8143 9.24678L54.8454 9.28027L54.8757 9.31428L54.9056 9.34878L54.9349 9.38381L54.9641 9.41936L54.9926 9.45542L55.0208 9.49202L55.0483 9.52915L55.0757 9.56682L55.1025 9.60504L55.1289 9.64381L55.1549 9.68313L55.1802 9.72302L55.2055 9.76348L55.2301 9.80452L55.2544 9.84615L55.2783 9.88836L55.3018 9.93118L55.3246 9.97461L55.3474 10.0187L55.3695 10.0633L55.3913 10.1086L55.4127 10.1546L55.4337 10.2012L55.4541 10.2485L55.4744 10.2965L55.4944 10.3452L55.5136 10.3945L55.5325 10.4446L55.5514 10.4955L55.5696 10.5471L55.5874 10.5994L55.6045 10.6525L55.6217 10.7065L55.6384 10.7612L55.6548 10.8169L55.6705 10.8733L55.6862 10.9307L55.7012 10.989L55.7158 11.0482L55.7304 11.1084L55.7443 11.1695L55.7579 11.2317L55.7711 11.295L55.7839 11.3594L55.7964 11.4249L55.8085 11.4916L55.8203 11.5595L55.8317 11.6287L55.8424 11.6993L55.8531 11.7712L55.8634 11.8446L55.8731 11.9195L55.8827 11.9961L55.892 12.0743L55.9005 12.1544L55.9091 12.2363L55.9169 12.3202L55.9244 12.4063L55.9319 12.4947L55.9387 12.5856L55.9451 12.6791L55.9515 12.7755L55.9572 12.875L55.9626 12.978L55.9675 13.0848L55.9722 13.1957L55.9765 13.3114L55.9804 13.4325L55.9843 13.5596L55.9875 13.694L55.9904 13.8367L55.9929 13.9897L55.995 14.1555L55.9964 14.3378L55.9979 14.5428L55.9989 14.7819L55.9996 15.0814L56 15.5485V16ZM45.3023 20.4H48.155C50.8576 20.4 52.4341 18.5143 52.4341 15.9748C52.4341 13.4103 50.879 11.6 48.1978 11.6H45.3023V20.4ZM43.876 20.4H41.7364V16V11.6H43.876V20.4ZM17.8287 16C17.8287 18.4271 16.2608 20.6 13.9033 20.6C11.5457 20.6 10 18.4525 10 16C10 13.5729 11.568 11.4 13.9255 11.4C16.283 11.4 17.8287 13.5475 17.8287 16ZM10.6005 16C10.6005 18.1984 12.0017 20.0028 13.9255 20.0028C15.8493 20.0028 17.2282 18.2238 17.2282 16C17.2282 13.8016 15.8271 11.9972 13.9033 11.9972C11.9794 11.9972 10.6005 13.7762 10.6005 16ZM20.536 20.4H19.9845V11.6H20.525L25.853 19.256V11.6H26.4046V20.4H25.9743L20.536 12.5806V20.4ZM34.2481 20.4H28.6995V11.6H34.1929V12.2034H29.2731V15.6606H33.6965V16.264H29.2731V19.7966H34.2481V20.4ZM48.5822 18.8578C48.7926 18.851 49.0322 18.8202 49.2762 18.751C49.3054 18.7428 49.335 18.734 49.3657 18.7246C49.5539 18.666 49.7579 18.5798 49.9676 18.4354C50.0189 18.4011 50.0689 18.3642 50.1181 18.3247L50.1163 18.3239C50.2657 18.202 50.4169 18.0479 50.567 17.8508C50.6283 17.77 50.7342 17.5991 50.7942 17.4666C50.6554 17.3016 50.4443 17.1659 50.2464 17.0466L50.2254 17.0338C50.1338 16.9783 49.9676 16.878 49.8128 16.81C49.7964 16.8028 49.7789 16.7957 49.7615 16.7884C49.6278 16.7331 49.4712 16.6684 49.4555 16.4901C49.4434 16.3526 49.5054 16.2666 49.5796 16.1642C49.5974 16.1396 49.616 16.1141 49.6342 16.0866C49.8503 15.763 50.0535 15.3214 50.0168 14.7236C49.9808 14.1368 49.6459 13.6811 49.0857 13.6108C49.0208 13.6027 48.9577 13.5992 48.8964 13.6002C48.8351 13.5992 48.7716 13.6027 48.7067 13.6108C48.1465 13.6811 47.8116 14.1368 47.7756 14.7236C47.7389 15.3214 47.9422 15.763 48.1582 16.0866C48.1768 16.1141 48.195 16.1396 48.2128 16.1642C48.287 16.2666 48.349 16.3526 48.3369 16.4901C48.3212 16.6684 48.1647 16.7331 48.0309 16.7884C48.0135 16.7957 47.9964 16.8028 47.98 16.81C47.8248 16.878 47.659 16.9783 47.567 17.0338L47.546 17.0466C47.2522 17.2236 46.9298 17.4367 46.8574 17.7281C46.7686 18.0846 46.7208 18.532 46.7298 18.8578H47.2315C47.3713 18.8578 47.515 18.8594 47.6615 18.861C47.9625 18.8644 48.2745 18.8678 48.5822 18.8578Z" fill="white"/>
</svg>
