<svg width="24" height="24" viewBox="0 0 24 24" fill="none" xmlns="http://www.w3.org/2000/svg">
<path d="M12 0C9.62669 0 7.30654 0.703784 5.33315 2.02236C3.35977 3.34093 1.8217 5.21508 0.913453 7.40779C0.00520429 9.60044 -0.232441 12.0133 0.230579 14.341C0.693598 16.6689 1.83649 18.807 3.51472 20.4853C5.19295 22.1635 7.33114 23.3064 9.65894 23.7694C11.9866 24.2325 14.3995 23.9947 16.5922 23.0865C18.7849 22.1782 20.659 20.6403 21.9777 18.6669C23.2962 16.6935 24 14.3734 24 12C24 8.8174 22.7356 5.76515 20.4853 3.51472C18.2349 1.26427 15.1825 0 12 0ZM17.895 8.21999L15.93 17.505C15.78 18.165 15.39 18.315 14.835 18.015L11.835 15.795L10.335 17.19C10.2643 17.2822 10.1736 17.3572 10.0696 17.4093C9.96569 17.4612 9.85124 17.4888 9.73499 17.49L9.94499 14.49L15.495 9.46499C15.75 9.25499 15.495 9.13499 15.135 9.34499L8.32499 13.62L5.32499 12.69C4.67999 12.495 4.66499 12.045 5.45999 11.745L17.025 7.24499C17.595 7.07999 18.075 7.40999 17.895 8.21999Z" fill="black"/>
</svg>
