<svg width="23" height="26" viewBox="0 0 23 26" fill="none" xmlns="http://www.w3.org/2000/svg">
<path d="M5.00001 8.00011V2.00011C5.00001 1.73489 5.10537 1.48054 5.2929 1.293C5.48044 1.10547 5.73479 1.00011 6.00001 1.00011C6.26523 1.00011 6.51958 1.10547 6.70712 1.293C6.89465 1.48054 7.00001 1.73489 7.00001 2.00011V8.00011C7.00001 8.26533 6.89465 8.51968 6.70712 8.70722C6.51958 8.89475 6.26523 9.00011 6.00001 9.00011C5.73479 9.00011 5.48044 8.89475 5.2929 8.70722C5.10537 8.51968 5.00001 8.26533 5.00001 8.00011ZM23 2.00011V25.0001C23 25.2653 22.8947 25.5197 22.7071 25.7072C22.5196 25.8948 22.2652 26.0001 22 26.0001C21.7348 26.0001 21.4804 25.8948 21.2929 25.7072C21.1054 25.5197 21 25.2653 21 25.0001V19.0001H15C14.7348 19.0001 14.4804 18.8948 14.2929 18.7072C14.1054 18.5197 14 18.2653 14 18.0001C14.0464 15.6047 14.349 13.2211 14.9025 10.8901C16.125 5.82886 18.4425 2.43636 21.6063 1.08136C21.7583 1.01622 21.9242 0.989829 22.0889 1.00454C22.2537 1.01925 22.4123 1.07461 22.5504 1.16566C22.6885 1.25671 22.8019 1.3806 22.8803 1.52623C22.9588 1.67186 22.9999 1.83468 23 2.00011ZM21 3.73761C16.9788 6.80886 16.1913 14.2901 16.0375 17.0001H21V3.73761ZM10.9863 1.83636C10.9667 1.70505 10.9211 1.57896 10.8523 1.46544C10.7835 1.35191 10.6927 1.25323 10.5854 1.17515C10.478 1.09706 10.3562 1.04114 10.227 1.01064C10.0977 0.980136 9.96375 0.975667 9.8328 0.997493C9.70185 1.01932 9.57655 1.067 9.46422 1.13776C9.35189 1.20852 9.25477 1.30093 9.17853 1.40962C9.10229 1.51831 9.04846 1.64108 9.02017 1.7708C8.99188 1.90051 8.9897 2.03455 9.01376 2.16511L10 8.07886C10 9.13973 9.57858 10.1571 8.82844 10.9073C8.07829 11.6574 7.06088 12.0789 6.00001 12.0789C4.93914 12.0789 3.92173 11.6574 3.17158 10.9073C2.42144 10.1571 2.00001 9.13973 2.00001 8.07886L2.98501 2.16511C3.00907 2.03455 3.00689 1.90051 2.9786 1.7708C2.95031 1.64108 2.89648 1.51831 2.82024 1.40962C2.744 1.30093 2.64688 1.20852 2.53455 1.13776C2.42222 1.067 2.29692 1.01932 2.16597 0.997493C2.03501 0.975667 1.90103 0.980136 1.77182 1.01064C1.64261 1.04114 1.52077 1.09706 1.4134 1.17515C1.30603 1.25323 1.21529 1.35191 1.14646 1.46544C1.07763 1.57896 1.03209 1.70505 1.01251 1.83636L0.0125093 7.83636C0.00395349 7.89052 -0.0002265 7.94528 9.45668e-06 8.00011C0.00200755 9.41737 0.504907 10.7883 1.41984 11.8707C2.33478 12.9531 3.60286 13.6772 5.00001 13.9151V25.0001C5.00001 25.2653 5.10537 25.5197 5.2929 25.7072C5.48044 25.8948 5.73479 26.0001 6.00001 26.0001C6.26523 26.0001 6.51958 25.8948 6.70712 25.7072C6.89465 25.5197 7.00001 25.2653 7.00001 25.0001V13.9151C8.39716 13.6772 9.66524 12.9531 10.5802 11.8707C11.4951 10.7883 11.998 9.41737 12 8.00011C11.9998 7.94525 11.9952 7.89049 11.9863 7.83636L10.9863 1.83636Z" fill="#343330"/>
</svg>
