<svg width="26" height="26" viewBox="0 0 26 26" fill="none" xmlns="http://www.w3.org/2000/svg">
<g clip-path="url(#clip0_174_46678)">
<path d="M26 13C26 5.82 20.18 0 13 0C5.82 0 0 5.82 0 13C0 20.18 5.82 26 13 26C20.18 26 26 20.18 26 13Z" fill="#F8604A"/>
<path d="M17.5503 20.8212H14.9283V7.27922H13.6073C11.3533 7.27922 10.2273 8.40622 10.2273 10.0962C10.2273 11.9812 10.9853 12.9122 12.6753 14.0392L13.9973 14.9712L10.2483 20.7992H7.2373L10.8123 15.5342C8.7533 14.0392 7.6273 12.7172 7.6273 10.2692C7.6273 7.25722 9.6853 5.19922 13.6503 5.19922H17.5503V20.8212Z" fill="white"/>
</g>
<defs>
<clipPath id="clip0_174_46678">
<rect width="26" height="26" fill="white"/>
</clipPath>
</defs>
</svg>
